<mxfile host="app.diagrams.net" modified="2023-11-28T18:33:58.707Z" agent="Mozilla/5.0 (Windows NT 10.0; Win64; x64) AppleWebKit/537.36 (KHTML, like Gecko) Chrome/119.0.0.0 Safari/537.36" etag="KJCOdaOMG4pf2hZ1_UKy" version="22.1.4" type="device">
  <diagram name="Page-1" id="I2pchXq7T7I7XBP1Yaf4">
    <mxGraphModel dx="2534" dy="790" grid="1" gridSize="10" guides="1" tooltips="1" connect="1" arrows="1" fold="1" page="1" pageScale="1" pageWidth="1100" pageHeight="850" math="0" shadow="0">
      <root>
        <mxCell id="0" />
        <mxCell id="1" parent="0" />
        <mxCell id="9HcWU7cP7KMFeykkvRc0-1" value="" style="ellipse;html=1;shape=startState;fillColor=#000000;strokeColor=#ff0000;" parent="1" vertex="1">
          <mxGeometry x="470" y="210" width="30" height="30" as="geometry" />
        </mxCell>
        <mxCell id="9HcWU7cP7KMFeykkvRc0-2" value="" style="edgeStyle=orthogonalEdgeStyle;html=1;verticalAlign=bottom;endArrow=open;endSize=8;strokeColor=#ff0000;rounded=0;entryX=0.616;entryY=0.065;entryDx=0;entryDy=0;entryPerimeter=0;" parent="1" source="9HcWU7cP7KMFeykkvRc0-1" edge="1">
          <mxGeometry relative="1" as="geometry">
            <mxPoint x="484.6399999999999" y="360.52" as="targetPoint" />
          </mxGeometry>
        </mxCell>
        <mxCell id="9HcWU7cP7KMFeykkvRc0-4" value="Деканат" style="rounded=1;whiteSpace=wrap;html=1;" parent="1" vertex="1">
          <mxGeometry x="425" y="360" width="120" height="60" as="geometry" />
        </mxCell>
        <mxCell id="9HcWU7cP7KMFeykkvRc0-6" value="Викладачі" style="rounded=1;whiteSpace=wrap;html=1;" parent="1" vertex="1">
          <mxGeometry x="305" y="630" width="120" height="60" as="geometry" />
        </mxCell>
        <mxCell id="9HcWU7cP7KMFeykkvRc0-7" value="Студенти" style="rounded=1;whiteSpace=wrap;html=1;" parent="1" vertex="1">
          <mxGeometry x="540" y="630" width="120" height="60" as="geometry" />
        </mxCell>
        <mxCell id="9HcWU7cP7KMFeykkvRc0-8" value="навчальний план" style="rounded=1;whiteSpace=wrap;html=1;" parent="1" vertex="1">
          <mxGeometry x="425" y="470" width="120" height="60" as="geometry" />
        </mxCell>
        <mxCell id="9HcWU7cP7KMFeykkvRc0-10" value="" style="endArrow=classic;html=1;rounded=0;entryX=1;entryY=0;entryDx=0;entryDy=0;" parent="1" source="9HcWU7cP7KMFeykkvRc0-15" target="9HcWU7cP7KMFeykkvRc0-6" edge="1">
          <mxGeometry width="50" height="50" relative="1" as="geometry">
            <mxPoint x="580" y="570" as="sourcePoint" />
            <mxPoint x="630" y="520" as="targetPoint" />
          </mxGeometry>
        </mxCell>
        <mxCell id="9HcWU7cP7KMFeykkvRc0-11" value="" style="endArrow=classic;html=1;rounded=0;exitX=0.596;exitY=0.783;exitDx=0;exitDy=0;entryX=0.25;entryY=0;entryDx=0;entryDy=0;exitPerimeter=0;" parent="1" source="9HcWU7cP7KMFeykkvRc0-15" target="9HcWU7cP7KMFeykkvRc0-7" edge="1">
          <mxGeometry width="50" height="50" relative="1" as="geometry">
            <mxPoint x="580" y="570" as="sourcePoint" />
            <mxPoint x="630" y="520" as="targetPoint" />
          </mxGeometry>
        </mxCell>
        <mxCell id="9HcWU7cP7KMFeykkvRc0-12" value="" style="endArrow=classic;html=1;rounded=0;exitX=0.438;exitY=0.992;exitDx=0;exitDy=0;exitPerimeter=0;entryX=0.431;entryY=-0.008;entryDx=0;entryDy=0;entryPerimeter=0;" parent="1" source="9HcWU7cP7KMFeykkvRc0-4" target="9HcWU7cP7KMFeykkvRc0-8" edge="1">
          <mxGeometry width="50" height="50" relative="1" as="geometry">
            <mxPoint x="580" y="570" as="sourcePoint" />
            <mxPoint x="630" y="520" as="targetPoint" />
          </mxGeometry>
        </mxCell>
        <mxCell id="9HcWU7cP7KMFeykkvRc0-15" value="" style="line;strokeWidth=4;rotatable=0;dashed=0;labelPosition=right;align=left;verticalAlign=middle;spacingTop=0;spacingLeft=6;points=[];portConstraint=eastwest;strokeColor=#CC0000;" parent="1" vertex="1">
          <mxGeometry x="437.5" y="560" width="95" height="10" as="geometry" />
        </mxCell>
        <mxCell id="9HcWU7cP7KMFeykkvRc0-17" value="" style="endArrow=classic;html=1;rounded=0;exitX=0.5;exitY=1;exitDx=0;exitDy=0;entryX=0.509;entryY=0.867;entryDx=0;entryDy=0;entryPerimeter=0;" parent="1" source="9HcWU7cP7KMFeykkvRc0-8" target="9HcWU7cP7KMFeykkvRc0-15" edge="1">
          <mxGeometry width="50" height="50" relative="1" as="geometry">
            <mxPoint x="480" y="570" as="sourcePoint" />
            <mxPoint x="530" y="520" as="targetPoint" />
          </mxGeometry>
        </mxCell>
        <mxCell id="9HcWU7cP7KMFeykkvRc0-18" value="заповнити журнал" style="rounded=1;whiteSpace=wrap;html=1;" parent="1" vertex="1">
          <mxGeometry x="-10" y="970" width="120" height="60" as="geometry" />
        </mxCell>
        <mxCell id="9HcWU7cP7KMFeykkvRc0-20" value="Провести пару" style="rhombus;whiteSpace=wrap;html=1;fontColor=#000000;fillColor=#ffffc0;strokeColor=#ff0000;" parent="1" vertex="1">
          <mxGeometry x="40" y="820" width="80" height="40" as="geometry" />
        </mxCell>
        <mxCell id="9HcWU7cP7KMFeykkvRc0-21" value="no" style="edgeStyle=orthogonalEdgeStyle;html=1;align=left;verticalAlign=bottom;endArrow=open;endSize=8;strokeColor=#005700;rounded=0;entryX=0.007;entryY=0.422;entryDx=0;entryDy=0;entryPerimeter=0;fillColor=#008a00;" parent="1" target="9HcWU7cP7KMFeykkvRc0-56" edge="1">
          <mxGeometry x="-0.8382" y="-10" relative="1" as="geometry">
            <mxPoint x="150" y="370" as="targetPoint" />
            <mxPoint x="80" y="820" as="sourcePoint" />
            <Array as="points">
              <mxPoint x="80" y="391" />
              <mxPoint x="260" y="391" />
              <mxPoint x="260" y="388" />
              <mxPoint x="261" y="388" />
            </Array>
            <mxPoint as="offset" />
          </mxGeometry>
        </mxCell>
        <mxCell id="9HcWU7cP7KMFeykkvRc0-22" value="yes" style="edgeStyle=orthogonalEdgeStyle;html=1;align=left;verticalAlign=top;endArrow=open;endSize=8;strokeColor=#005700;rounded=0;entryX=0.75;entryY=0;entryDx=0;entryDy=0;fillColor=#008a00;" parent="1" source="9HcWU7cP7KMFeykkvRc0-20" target="9HcWU7cP7KMFeykkvRc0-18" edge="1">
          <mxGeometry x="-0.3354" y="-20" relative="1" as="geometry">
            <mxPoint x="278" y="970" as="targetPoint" />
            <mxPoint as="offset" />
          </mxGeometry>
        </mxCell>
        <mxCell id="9HcWU7cP7KMFeykkvRc0-24" value="прийти на пару" style="rhombus;whiteSpace=wrap;html=1;fontColor=#000000;fillColor=#ffffc0;strokeColor=#ff0000;" parent="1" vertex="1">
          <mxGeometry x="560" y="820" width="80" height="40" as="geometry" />
        </mxCell>
        <mxCell id="9HcWU7cP7KMFeykkvRc0-25" value="no" style="edgeStyle=orthogonalEdgeStyle;html=1;align=left;verticalAlign=bottom;endArrow=open;endSize=8;strokeColor=#BD7000;rounded=0;entryX=1;entryY=0.5;entryDx=0;entryDy=0;exitX=1;exitY=0.5;exitDx=0;exitDy=0;fillColor=#f0a30a;" parent="1" source="9HcWU7cP7KMFeykkvRc0-24" target="9HcWU7cP7KMFeykkvRc0-29" edge="1">
          <mxGeometry x="-0.2535" y="10" relative="1" as="geometry">
            <mxPoint x="690.0299999999997" y="830.02" as="targetPoint" />
            <mxPoint x="689.9955172413793" y="780.0027586206897" as="sourcePoint" />
            <mxPoint as="offset" />
          </mxGeometry>
        </mxCell>
        <mxCell id="9HcWU7cP7KMFeykkvRc0-26" value="yes" style="edgeStyle=orthogonalEdgeStyle;html=1;align=left;verticalAlign=top;endArrow=open;endSize=8;strokeColor=#BD7000;rounded=0;entryX=1;entryY=0.5;entryDx=0;entryDy=0;fillColor=#f0a30a;" parent="1" source="9HcWU7cP7KMFeykkvRc0-24" target="9HcWU7cP7KMFeykkvRc0-20" edge="1">
          <mxGeometry x="-0.6571" relative="1" as="geometry">
            <mxPoint x="580" y="840" as="targetPoint" />
            <Array as="points">
              <mxPoint x="170" y="840" />
              <mxPoint x="170" y="840" />
            </Array>
            <mxPoint as="offset" />
          </mxGeometry>
        </mxCell>
        <mxCell id="9HcWU7cP7KMFeykkvRc0-27" value="" style="endArrow=classic;html=1;rounded=0;exitX=0.372;exitY=1.06;exitDx=0;exitDy=0;exitPerimeter=0;entryX=0.386;entryY=0.867;entryDx=0;entryDy=0;entryPerimeter=0;" parent="1" source="9HcWU7cP7KMFeykkvRc0-6" target="9HcWU7cP7KMFeykkvRc0-43" edge="1">
          <mxGeometry width="50" height="50" relative="1" as="geometry">
            <mxPoint x="350" y="710" as="sourcePoint" />
            <mxPoint x="350" y="730" as="targetPoint" />
          </mxGeometry>
        </mxCell>
        <mxCell id="9HcWU7cP7KMFeykkvRc0-28" value="" style="endArrow=classic;html=1;rounded=0;exitX=0.5;exitY=1;exitDx=0;exitDy=0;" parent="1" source="9HcWU7cP7KMFeykkvRc0-7" target="9HcWU7cP7KMFeykkvRc0-24" edge="1">
          <mxGeometry width="50" height="50" relative="1" as="geometry">
            <mxPoint x="350" y="710" as="sourcePoint" />
            <mxPoint x="400" y="660" as="targetPoint" />
          </mxGeometry>
        </mxCell>
        <mxCell id="9HcWU7cP7KMFeykkvRc0-29" value="повідомити причину відсутності" style="rounded=1;whiteSpace=wrap;html=1;" parent="1" vertex="1">
          <mxGeometry x="480" y="890" width="120" height="60" as="geometry" />
        </mxCell>
        <mxCell id="9HcWU7cP7KMFeykkvRc0-30" value="" style="endArrow=classic;html=1;rounded=0;exitX=0.368;exitY=-0.06;exitDx=0;exitDy=0;exitPerimeter=0;entryX=1;entryY=0.5;entryDx=0;entryDy=0;" parent="1" source="9HcWU7cP7KMFeykkvRc0-29" target="9HcWU7cP7KMFeykkvRc0-6" edge="1">
          <mxGeometry width="50" height="50" relative="1" as="geometry">
            <mxPoint x="350" y="710" as="sourcePoint" />
            <mxPoint x="400" y="660" as="targetPoint" />
            <Array as="points">
              <mxPoint x="524" y="660" />
            </Array>
          </mxGeometry>
        </mxCell>
        <mxCell id="9HcWU7cP7KMFeykkvRc0-31" value="курсова" style="rounded=1;whiteSpace=wrap;html=1;" parent="1" vertex="1">
          <mxGeometry x="930" y="630" width="120" height="60" as="geometry" />
        </mxCell>
        <mxCell id="9HcWU7cP7KMFeykkvRc0-33" value="" style="endArrow=classic;html=1;rounded=0;exitX=1;exitY=0.5;exitDx=0;exitDy=0;entryX=0;entryY=0.5;entryDx=0;entryDy=0;" parent="1" source="9HcWU7cP7KMFeykkvRc0-7" target="9HcWU7cP7KMFeykkvRc0-34" edge="1">
          <mxGeometry width="50" height="50" relative="1" as="geometry">
            <mxPoint x="540" y="740" as="sourcePoint" />
            <mxPoint x="729.9999999999998" y="660" as="targetPoint" />
          </mxGeometry>
        </mxCell>
        <mxCell id="9HcWU7cP7KMFeykkvRc0-34" value="обрати тему курсової" style="rhombus;whiteSpace=wrap;html=1;fontColor=#000000;fillColor=#ffffc0;strokeColor=#ff0000;" parent="1" vertex="1">
          <mxGeometry x="780" y="640" width="80" height="40" as="geometry" />
        </mxCell>
        <mxCell id="9HcWU7cP7KMFeykkvRc0-35" value="no" style="edgeStyle=orthogonalEdgeStyle;html=1;align=left;verticalAlign=bottom;endArrow=open;endSize=8;strokeColor=#001DBC;rounded=0;entryX=0.919;entryY=0.991;entryDx=0;entryDy=0;entryPerimeter=0;fillColor=#0050ef;" parent="1" source="9HcWU7cP7KMFeykkvRc0-34" target="9HcWU7cP7KMFeykkvRc0-7" edge="1">
          <mxGeometry x="-0.8261" y="-20" relative="1" as="geometry">
            <mxPoint x="780" y="770" as="targetPoint" />
            <Array as="points">
              <mxPoint x="800" y="720" />
              <mxPoint x="650" y="720" />
            </Array>
            <mxPoint as="offset" />
          </mxGeometry>
        </mxCell>
        <mxCell id="9HcWU7cP7KMFeykkvRc0-36" value="yes" style="edgeStyle=orthogonalEdgeStyle;html=1;align=left;verticalAlign=top;endArrow=open;endSize=8;strokeColor=#001DBC;rounded=0;entryX=0;entryY=0.5;entryDx=0;entryDy=0;fillColor=#0050ef;" parent="1" source="9HcWU7cP7KMFeykkvRc0-34" target="9HcWU7cP7KMFeykkvRc0-31" edge="1">
          <mxGeometry x="-1" relative="1" as="geometry">
            <mxPoint x="820" y="760" as="targetPoint" />
          </mxGeometry>
        </mxCell>
        <mxCell id="9HcWU7cP7KMFeykkvRc0-42" value="" style="endArrow=classic;html=1;rounded=0;exitX=0.5;exitY=1;exitDx=0;exitDy=0;entryX=0.5;entryY=0;entryDx=0;entryDy=0;" parent="1" source="9HcWU7cP7KMFeykkvRc0-31" target="9HcWU7cP7KMFeykkvRc0-46" edge="1">
          <mxGeometry width="50" height="50" relative="1" as="geometry">
            <mxPoint x="990" y="670" as="sourcePoint" />
            <mxPoint x="480" y="980" as="targetPoint" />
            <Array as="points">
              <mxPoint x="990" y="980" />
              <mxPoint x="465" y="980" />
            </Array>
          </mxGeometry>
        </mxCell>
        <mxCell id="9HcWU7cP7KMFeykkvRc0-43" value="" style="line;strokeWidth=4;rotatable=0;dashed=0;labelPosition=right;align=left;verticalAlign=middle;spacingTop=0;spacingLeft=6;points=[];portConstraint=eastwest;strokeColor=#CC0000;" parent="1" vertex="1">
          <mxGeometry x="317.5" y="740" width="95" height="10" as="geometry" />
        </mxCell>
        <mxCell id="9HcWU7cP7KMFeykkvRc0-44" value="" style="endArrow=classic;html=1;rounded=0;entryX=0.5;entryY=0;entryDx=0;entryDy=0;" parent="1" source="9HcWU7cP7KMFeykkvRc0-43" target="9HcWU7cP7KMFeykkvRc0-20" edge="1">
          <mxGeometry width="50" height="50" relative="1" as="geometry">
            <mxPoint x="780" y="770" as="sourcePoint" />
            <mxPoint x="830" y="720" as="targetPoint" />
          </mxGeometry>
        </mxCell>
        <mxCell id="9HcWU7cP7KMFeykkvRc0-45" value="" style="endArrow=classic;html=1;rounded=0;exitX=0.454;exitY=0.81;exitDx=0;exitDy=0;exitPerimeter=0;" parent="1" source="9HcWU7cP7KMFeykkvRc0-43" target="9HcWU7cP7KMFeykkvRc0-46" edge="1">
          <mxGeometry width="50" height="50" relative="1" as="geometry">
            <mxPoint x="780" y="770" as="sourcePoint" />
            <mxPoint x="416.9059880239522" y="970" as="targetPoint" />
            <Array as="points">
              <mxPoint x="380" y="800" />
            </Array>
          </mxGeometry>
        </mxCell>
        <mxCell id="9HcWU7cP7KMFeykkvRc0-46" value="Перевірити курсову" style="rhombus;whiteSpace=wrap;html=1;fontColor=#000000;fillColor=#ffffc0;strokeColor=#ff0000;" parent="1" vertex="1">
          <mxGeometry x="425" y="990" width="80" height="40" as="geometry" />
        </mxCell>
        <mxCell id="9HcWU7cP7KMFeykkvRc0-47" value="не одобрили" style="edgeStyle=orthogonalEdgeStyle;html=1;align=left;verticalAlign=bottom;endArrow=open;endSize=8;strokeColor=#ff0000;rounded=0;entryX=0.75;entryY=1;entryDx=0;entryDy=0;" parent="1" source="9HcWU7cP7KMFeykkvRc0-46" target="9HcWU7cP7KMFeykkvRc0-31" edge="1">
          <mxGeometry x="-0.9091" y="-30" relative="1" as="geometry">
            <mxPoint x="420" y="1160" as="targetPoint" />
            <mxPoint as="offset" />
          </mxGeometry>
        </mxCell>
        <mxCell id="9HcWU7cP7KMFeykkvRc0-48" value="одобрили" style="edgeStyle=orthogonalEdgeStyle;html=1;align=left;verticalAlign=top;endArrow=open;endSize=8;strokeColor=#ff0000;rounded=0;entryX=0.986;entryY=0.658;entryDx=0;entryDy=0;entryPerimeter=0;" parent="1" source="9HcWU7cP7KMFeykkvRc0-46" target="9HcWU7cP7KMFeykkvRc0-18" edge="1">
          <mxGeometry x="0.4449" y="10" relative="1" as="geometry">
            <mxPoint x="420" y="1080" as="targetPoint" />
            <Array as="points" />
            <mxPoint as="offset" />
          </mxGeometry>
        </mxCell>
        <mxCell id="9HcWU7cP7KMFeykkvRc0-52" value="Провести консультацію" style="rhombus;whiteSpace=wrap;html=1;fontColor=#000000;fillColor=#ffffc0;strokeColor=#ff0000;" parent="1" vertex="1">
          <mxGeometry x="210" y="870" width="80" height="40" as="geometry" />
        </mxCell>
        <mxCell id="9HcWU7cP7KMFeykkvRc0-53" value="no" style="edgeStyle=orthogonalEdgeStyle;html=1;align=left;verticalAlign=bottom;endArrow=open;endSize=8;strokeColor=#005700;rounded=0;fillColor=#008a00;" parent="1" source="9HcWU7cP7KMFeykkvRc0-52" target="9HcWU7cP7KMFeykkvRc0-56" edge="1">
          <mxGeometry x="-0.9055" y="-10" relative="1" as="geometry">
            <mxPoint x="240" y="405" as="targetPoint" />
            <Array as="points">
              <mxPoint x="160" y="890" />
              <mxPoint x="160" y="405" />
            </Array>
            <mxPoint as="offset" />
          </mxGeometry>
        </mxCell>
        <mxCell id="9HcWU7cP7KMFeykkvRc0-54" value="yes" style="edgeStyle=orthogonalEdgeStyle;html=1;align=left;verticalAlign=top;endArrow=open;endSize=8;strokeColor=#005700;rounded=0;entryX=1.011;entryY=0.345;entryDx=0;entryDy=0;entryPerimeter=0;fillColor=#008a00;" parent="1" source="9HcWU7cP7KMFeykkvRc0-52" target="9HcWU7cP7KMFeykkvRc0-18" edge="1">
          <mxGeometry x="0.0087" y="10" relative="1" as="geometry">
            <mxPoint x="250" y="970" as="targetPoint" />
            <Array as="points">
              <mxPoint x="250" y="991" />
            </Array>
            <mxPoint as="offset" />
          </mxGeometry>
        </mxCell>
        <mxCell id="9HcWU7cP7KMFeykkvRc0-55" value="" style="endArrow=classic;html=1;rounded=0;exitX=0.386;exitY=0.283;exitDx=0;exitDy=0;exitPerimeter=0;entryX=0.5;entryY=0;entryDx=0;entryDy=0;" parent="1" source="9HcWU7cP7KMFeykkvRc0-43" target="9HcWU7cP7KMFeykkvRc0-52" edge="1">
          <mxGeometry width="50" height="50" relative="1" as="geometry">
            <mxPoint x="420" y="780" as="sourcePoint" />
            <mxPoint x="290" y="820" as="targetPoint" />
          </mxGeometry>
        </mxCell>
        <mxCell id="9HcWU7cP7KMFeykkvRc0-56" value="Повідомити причину" style="rounded=1;whiteSpace=wrap;html=1;" parent="1" vertex="1">
          <mxGeometry x="260" y="360" width="120" height="60" as="geometry" />
        </mxCell>
        <mxCell id="9HcWU7cP7KMFeykkvRc0-57" value="" style="endArrow=classic;html=1;rounded=0;exitX=0.125;exitY=0.017;exitDx=0;exitDy=0;exitPerimeter=0;entryX=0.25;entryY=0;entryDx=0;entryDy=0;" parent="1" source="9HcWU7cP7KMFeykkvRc0-18" target="9HcWU7cP7KMFeykkvRc0-4" edge="1">
          <mxGeometry width="50" height="50" relative="1" as="geometry">
            <mxPoint x="320" y="720" as="sourcePoint" />
            <mxPoint y="320" as="targetPoint" />
            <Array as="points">
              <mxPoint y="300" />
              <mxPoint x="455" y="300" />
            </Array>
          </mxGeometry>
        </mxCell>
        <mxCell id="9HcWU7cP7KMFeykkvRc0-58" value="" style="endArrow=classic;html=1;rounded=0;exitX=1;exitY=0.5;exitDx=0;exitDy=0;entryX=0;entryY=0.5;entryDx=0;entryDy=0;" parent="1" source="9HcWU7cP7KMFeykkvRc0-56" target="9HcWU7cP7KMFeykkvRc0-4" edge="1">
          <mxGeometry width="50" height="50" relative="1" as="geometry">
            <mxPoint x="330" y="530" as="sourcePoint" />
            <mxPoint x="380" y="480" as="targetPoint" />
          </mxGeometry>
        </mxCell>
        <mxCell id="9HcWU7cP7KMFeykkvRc0-59" value="Провести семінар" style="rhombus;whiteSpace=wrap;html=1;fontColor=#000000;fillColor=#ffffc0;strokeColor=#ff0000;" parent="1" vertex="1">
          <mxGeometry x="300" y="910" width="80" height="40" as="geometry" />
        </mxCell>
        <mxCell id="9HcWU7cP7KMFeykkvRc0-60" value="no" style="edgeStyle=orthogonalEdgeStyle;html=1;align=left;verticalAlign=bottom;endArrow=open;endSize=8;strokeColor=#3700CC;rounded=0;entryX=0;entryY=0.25;entryDx=0;entryDy=0;fillColor=#6a00ff;" parent="1" source="9HcWU7cP7KMFeykkvRc0-59" target="9HcWU7cP7KMFeykkvRc0-56" edge="1">
          <mxGeometry x="-0.6647" y="-10" relative="1" as="geometry">
            <mxPoint x="480" y="930" as="targetPoint" />
            <Array as="points">
              <mxPoint x="140" y="930" />
              <mxPoint x="140" y="375" />
            </Array>
            <mxPoint as="offset" />
          </mxGeometry>
        </mxCell>
        <mxCell id="9HcWU7cP7KMFeykkvRc0-61" value="yes" style="edgeStyle=orthogonalEdgeStyle;html=1;align=left;verticalAlign=top;endArrow=open;endSize=8;strokeColor=#3700CC;rounded=0;entryX=1;entryY=0.5;entryDx=0;entryDy=0;fillColor=#6a00ff;" parent="1" source="9HcWU7cP7KMFeykkvRc0-59" target="9HcWU7cP7KMFeykkvRc0-18" edge="1">
          <mxGeometry x="-0.8571" y="10" relative="1" as="geometry">
            <mxPoint x="340" y="1010" as="targetPoint" />
            <Array as="points">
              <mxPoint x="340" y="1000" />
            </Array>
            <mxPoint as="offset" />
          </mxGeometry>
        </mxCell>
        <mxCell id="9HcWU7cP7KMFeykkvRc0-62" value="" style="endArrow=classic;html=1;rounded=0;exitX=0.411;exitY=0.865;exitDx=0;exitDy=0;exitPerimeter=0;" parent="1" source="9HcWU7cP7KMFeykkvRc0-43" target="9HcWU7cP7KMFeykkvRc0-59" edge="1">
          <mxGeometry width="50" height="50" relative="1" as="geometry">
            <mxPoint x="520" y="800" as="sourcePoint" />
            <mxPoint x="570" y="750" as="targetPoint" />
          </mxGeometry>
        </mxCell>
      </root>
    </mxGraphModel>
  </diagram>
</mxfile>
